<?xml version="1.0" encoding="UTF-8" standalone="no"?>
<!DOCTYPE svg PUBLIC "-//W3C//DTD SVG 1.1//EN"
 "http://www.w3.org/Graphics/SVG/1.1/DTD/svg11.dtd">
<!-- Generated by graphviz version 2.38.0 (20140413.2041)
 -->
<!-- Title: %3 Pages: 1 -->
<svg width="27263pt" height="8267pt"
 viewBox="0.00 0.00 27263.48 8267.00" xmlns="http://www.w3.org/2000/svg" xmlns:xlink="http://www.w3.org/1999/xlink">
<g id="graph0" class="graph" transform="scale(1 1) rotate(0) translate(4 8263)">
<title>%3</title>
<polygon fill="white" stroke="none" points="-4,4 -4,-8263 27259.5,-8263 27259.5,4 -4,4"/>
<!-- Test Repair_Inform User -->
<g id="node1" class="node"><title>Test Repair_Inform User</title>
<ellipse fill="lightgrey" stroke="black" stroke-width="10" cx="2758.48" cy="-6652" rx="438.312" ry="438.312"/>
<text text-anchor="middle" x="2758.48" y="-6637" font-family="Times,serif" font-size="60.00">Test Repair_Inform User</text>
</g>
<!-- Inform User_Archive Repair -->
<g id="node2" class="node"><title>Inform User_Archive Repair</title>
<ellipse fill="lightgrey" stroke="black" stroke-width="10" cx="6836.48" cy="-7448" rx="502.092" ry="502.092"/>
<text text-anchor="middle" x="6836.48" y="-7433" font-family="Times,serif" font-size="60.00">Inform User_Archive Repair</text>
</g>
<!-- Test Repair_Inform User&#45;&gt;Inform User_Archive Repair -->
<g id="edge1" class="edge"><title>Test Repair_Inform User&#45;&gt;Inform User_Archive Repair</title>
<path fill="none" stroke="black" stroke-width="15" d="M3188.94,-6735.87C3948.49,-6884.2 5524.8,-7192.04 6333.32,-7349.93"/>
<polygon fill="black" stroke="black" stroke-width="15" points="6331.06,-7362.86 6343.39,-7351.9 6336.09,-7337.1 6331.06,-7362.86"/>
<text text-anchor="middle" x="4117.48" y="-6919.8" font-family="Times,serif" font-size="14.00">860</text>
</g>
<!-- Inform User_Restart Repair -->
<g id="node3" class="node"><title>Inform User_Restart Repair</title>
<ellipse fill="lightgrey" stroke="black" stroke-width="10" cx="5476.48" cy="-5177" rx="485.151" ry="485.151"/>
<text text-anchor="middle" x="5476.48" y="-5162" font-family="Times,serif" font-size="60.00">Inform User_Restart Repair</text>
</g>
<!-- Test Repair_Inform User&#45;&gt;Inform User_Restart Repair -->
<g id="edge2" class="edge"><title>Test Repair_Inform User&#45;&gt;Inform User_Restart Repair</title>
<path fill="none" stroke="black" stroke-width="15" d="M3144.29,-6443.02C3644.87,-6171.16 4517.12,-5697.46 5040.98,-5412.97"/>
<polygon fill="black" stroke="black" stroke-width="15" points="5047.3,-5424.47 5049.82,-5408.17 5034.77,-5401.4 5047.3,-5424.47"/>
<text text-anchor="middle" x="4117.48" y="-5918.8" font-family="Times,serif" font-size="14.00">260</text>
</g>
<!-- END -->
<g id="node4" class="node"><title>END</title>
<ellipse fill="none" stroke="black" cx="27226.5" cy="-5021" rx="29.4969" ry="18"/>
<text text-anchor="middle" x="27226.5" y="-5017.3" font-family="Times,serif" font-size="14.00">END</text>
</g>
<!-- Test Repair_Inform User&#45;&gt;END -->
<g id="edge3" class="edge"><title>Test Repair_Inform User&#45;&gt;END</title>
<path fill="none" stroke="black" stroke-width="15" d="M3058.3,-6972.73C3525.68,-7437.69 4479.71,-8244 5475.48,-8244 5475.48,-8244 5475.48,-8244 24508.5,-8244 26280.5,-8244 27131,-5360.9 27218,-5048.38"/>
<polygon fill="black" stroke="black" stroke-width="15" points="27230.7,-5051.87 27220.7,-5038.73 27205.4,-5044.87 27230.7,-5051.87"/>
<text text-anchor="middle" x="14992.5" y="-8247.8" font-family="Times,serif" font-size="14.00">108</text>
</g>
<!-- Inform User_Archive Repair&#45;&gt;END -->
<g id="edge17" class="edge"><title>Inform User_Archive Repair&#45;&gt;END</title>
<path fill="none" stroke="black" stroke-width="15" d="M7329.35,-7351.94C7871.76,-7254.52 8771.37,-7118 9553.48,-7118 9553.48,-7118 9553.48,-7118 24508.5,-7118 25169,-7118 25371.2,-6968.01 25881,-6548 26512.4,-6027.72 27101.9,-5198.79 27208.4,-5045.72"/>
<polygon fill="black" stroke="black" stroke-width="15" points="27219.3,-5053.09 27214.2,-5037.39 27197.7,-5038.12 27219.3,-5053.09"/>
<text text-anchor="middle" x="16351.5" y="-7121.8" font-family="Times,serif" font-size="14.00">860</text>
</g>
<!-- Restart Repair_Repair (Complex) -->
<g id="node6" class="node"><title>Restart Repair_Repair (Complex)</title>
<ellipse fill="lightgrey" stroke="black" stroke-width="10" cx="8195.48" cy="-5177" rx="584.14" ry="584.14"/>
<text text-anchor="middle" x="8195.48" y="-5162" font-family="Times,serif" font-size="60.00">Restart Repair_Repair (Complex)</text>
</g>
<!-- Inform User_Restart Repair&#45;&gt;Restart Repair_Repair (Complex) -->
<g id="edge26" class="edge"><title>Inform User_Restart Repair&#45;&gt;Restart Repair_Repair (Complex)</title>
<path fill="none" stroke="black" stroke-width="15" d="M5961.66,-5177C6420.2,-5177 7109.82,-5177 7601.2,-5177"/>
<polygon fill="black" stroke="black" stroke-width="15" points="7601.32,-5190.13 7611.32,-5177 7601.32,-5163.88 7601.32,-5190.13"/>
<text text-anchor="middle" x="6836.48" y="-5180.8" font-family="Times,serif" font-size="14.00">68</text>
</g>
<!-- Restart Repair_Repair (Simple) -->
<g id="node7" class="node"><title>Restart Repair_Repair (Simple)</title>
<ellipse fill="lightgrey" stroke="black" stroke-width="10" cx="16351.5" cy="-2808" rx="548.93" ry="548.93"/>
<text text-anchor="middle" x="16351.5" y="-2793" font-family="Times,serif" font-size="60.00">Restart Repair_Repair (Simple)</text>
</g>
<!-- Inform User_Restart Repair&#45;&gt;Restart Repair_Repair (Simple) -->
<g id="edge27" class="edge"><title>Inform User_Restart Repair&#45;&gt;Restart Repair_Repair (Simple)</title>
<path fill="none" stroke="black" stroke-width="15" d="M5909.23,-4956.97C6961.18,-4436.9 9754.66,-3151.79 12262.5,-2836 13516.7,-2678.06 15004.5,-2726.34 15793.8,-2770.34"/>
<polygon fill="black" stroke="black" stroke-width="15" points="15793.2,-2783.45 15803.9,-2770.9 15794.6,-2757.24 15793.2,-2783.45"/>
<text text-anchor="middle" x="10914.5" y="-3221.8" font-family="Times,serif" font-size="14.00">192</text>
</g>
<!-- Test Repair_Restart Repair -->
<g id="node5" class="node"><title>Test Repair_Restart Repair</title>
<ellipse fill="lightgrey" stroke="black" stroke-width="10" cx="13632.5" cy="-6111" rx="473.523" ry="473.523"/>
<text text-anchor="middle" x="13632.5" y="-6096" font-family="Times,serif" font-size="60.00">Test Repair_Restart Repair</text>
</g>
<!-- Test Repair_Restart Repair&#45;&gt;Restart Repair_Repair (Complex) -->
<g id="edge4" class="edge"><title>Test Repair_Restart Repair&#45;&gt;Restart Repair_Repair (Complex)</title>
<path fill="none" stroke="black" stroke-width="15" d="M13158.6,-6098.62C12519.8,-6075.18 11347.9,-6008.43 10365.8,-5821 9808.16,-5714.58 9188.91,-5523.13 8755.25,-5376.53"/>
<polygon fill="black" stroke="black" stroke-width="15" points="8759.36,-5364.07 8745.68,-5373.29 8750.95,-5388.93 8759.36,-5364.07"/>
<text text-anchor="middle" x="10914.5" y="-5982.8" font-family="Times,serif" font-size="14.00">256</text>
</g>
<!-- Test Repair_Restart Repair&#45;&gt;Restart Repair_Repair (Simple) -->
<g id="edge5" class="edge"><title>Test Repair_Restart Repair&#45;&gt;Restart Repair_Repair (Simple)</title>
<path fill="none" stroke="black" stroke-width="15" d="M13934.3,-5745.3C14439.5,-5131.08 15456.1,-3895.27 15995.5,-3239.53"/>
<polygon fill="black" stroke="black" stroke-width="15" points="16006,-3247.43 16002.2,-3231.37 15985.7,-3230.75 16006,-3247.43"/>
<text text-anchor="middle" x="14992.5" y="-4463.8" font-family="Times,serif" font-size="14.00">812</text>
</g>
<!-- Restart Repair_Inform User -->
<g id="node8" class="node"><title>Restart Repair_Inform User</title>
<ellipse fill="lightgrey" stroke="black" stroke-width="10" cx="16351.5" cy="-6073" rx="485.151" ry="485.151"/>
<text text-anchor="middle" x="16351.5" y="-6058" font-family="Times,serif" font-size="60.00">Restart Repair_Inform User</text>
</g>
<!-- Test Repair_Restart Repair&#45;&gt;Restart Repair_Inform User -->
<g id="edge6" class="edge"><title>Test Repair_Restart Repair&#45;&gt;Restart Repair_Inform User</title>
<path fill="none" stroke="black" stroke-width="15" d="M14106.4,-6104.39C14596.2,-6097.54 15358.3,-6086.88 15856,-6079.92"/>
<polygon fill="black" stroke="black" stroke-width="15" points="15856.4,-6093.04 15866.2,-6079.77 15856,-6066.79 15856.4,-6093.04"/>
<text text-anchor="middle" x="14992.5" y="-6095.8" font-family="Times,serif" font-size="14.00">296</text>
</g>
<!-- Repair (Complex)_Test Repair -->
<g id="node9" class="node"><title>Repair (Complex)_Test Repair</title>
<ellipse fill="lightgrey" stroke="black" stroke-width="10" cx="10914.5" cy="-5275" rx="537.302" ry="537.302"/>
<text text-anchor="middle" x="10914.5" y="-5260" font-family="Times,serif" font-size="60.00">Repair (Complex)_Test Repair</text>
</g>
<!-- Restart Repair_Repair (Complex)&#45;&gt;Repair (Complex)_Test Repair -->
<g id="edge14" class="edge"><title>Restart Repair_Repair (Complex)&#45;&gt;Repair (Complex)_Test Repair</title>
<path fill="none" stroke="black" stroke-width="15" d="M8779.34,-5198.02C9249.79,-5214.99 9906.87,-5238.69 10367.3,-5255.3"/>
<polygon fill="black" stroke="black" stroke-width="15" points="10366.9,-5268.42 10377.4,-5255.66 10367.9,-5242.19 10366.9,-5268.42"/>
<text text-anchor="middle" x="9554.48" y="-5229.8" font-family="Times,serif" font-size="14.00">300</text>
</g>
<!-- Repair (Complex)_Inform User -->
<g id="node12" class="node"><title>Repair (Complex)_Inform User</title>
<ellipse fill="lightgrey" stroke="black" stroke-width="10" cx="10914.5" cy="-1854" rx="548.93" ry="548.93"/>
<text text-anchor="middle" x="10914.5" y="-1839" font-family="Times,serif" font-size="60.00">Repair (Complex)_Inform User</text>
</g>
<!-- Restart Repair_Repair (Complex)&#45;&gt;Repair (Complex)_Inform User -->
<g id="edge15" class="edge"><title>Restart Repair_Repair (Complex)&#45;&gt;Repair (Complex)_Inform User</title>
<path fill="none" stroke="black" stroke-width="15" d="M8566.09,-4724.95C9090.61,-4083.44 10044.3,-2916.98 10559.9,-2286.39"/>
<polygon fill="black" stroke="black" stroke-width="15" points="10570.2,-2294.59 10566.4,-2278.54 10549.9,-2277.97 10570.2,-2294.59"/>
<text text-anchor="middle" x="9554.48" y="-3519.8" font-family="Times,serif" font-size="14.00">24</text>
</g>
<!-- Repair (Simple)_Inform User -->
<g id="node14" class="node"><title>Repair (Simple)_Inform User</title>
<ellipse fill="lightgrey" stroke="black" stroke-width="10" cx="19070.5" cy="-2567" rx="513.219" ry="513.219"/>
<text text-anchor="middle" x="19070.5" y="-2552" font-family="Times,serif" font-size="60.00">Repair (Simple)_Inform User</text>
</g>
<!-- Restart Repair_Repair (Simple)&#45;&gt;Repair (Simple)_Inform User -->
<g id="edge18" class="edge"><title>Restart Repair_Repair (Simple)&#45;&gt;Repair (Simple)_Inform User</title>
<path fill="none" stroke="black" stroke-width="15" d="M16898.2,-2759.59C17379.4,-2716.92 18075.6,-2655.16 18549,-2613.17"/>
<polygon fill="black" stroke="black" stroke-width="15" points="18550.3,-2626.23 18559.1,-2612.27 18548,-2600.08 18550.3,-2626.23"/>
<text text-anchor="middle" x="17710.5" y="-2691.8" font-family="Times,serif" font-size="14.00">80</text>
</g>
<!-- Repair (Simple)_Test Repair -->
<g id="node15" class="node"><title>Repair (Simple)_Test Repair</title>
<ellipse fill="lightgrey" stroke="black" stroke-width="10" cx="21788.5" cy="-5021" rx="502.092" ry="502.092"/>
<text text-anchor="middle" x="21788.5" y="-5006" font-family="Times,serif" font-size="60.00">Repair (Simple)_Test Repair</text>
</g>
<!-- Restart Repair_Repair (Simple)&#45;&gt;Repair (Simple)_Test Repair -->
<g id="edge19" class="edge"><title>Restart Repair_Repair (Simple)&#45;&gt;Repair (Simple)_Test Repair</title>
<path fill="none" stroke="black" stroke-width="15" d="M16881.2,-2952.16C17671.6,-3170.31 19121.8,-3581.33 19619.2,-3794 20250.5,-4063.91 20932.5,-4470.82 21359.6,-4741.08"/>
<polygon fill="black" stroke="black" stroke-width="15" points="21352.6,-4752.18 21368.1,-4746.44 21366.7,-4730 21352.6,-4752.18"/>
<text text-anchor="middle" x="19070.5" y="-3797.8" font-family="Times,serif" font-size="14.00">924</text>
</g>
<!-- Inform User_Repair (Complex) -->
<g id="node16" class="node"><title>Inform User_Repair (Complex)</title>
<ellipse fill="lightgrey" stroke="black" stroke-width="10" cx="19070.5" cy="-4367" rx="548.93" ry="548.93"/>
<text text-anchor="middle" x="19070.5" y="-4352" font-family="Times,serif" font-size="60.00">Inform User_Repair (Complex)</text>
</g>
<!-- Restart Repair_Inform User&#45;&gt;Inform User_Repair (Complex) -->
<g id="edge20" class="edge"><title>Restart Repair_Inform User&#45;&gt;Inform User_Repair (Complex)</title>
<path fill="none" stroke="black" stroke-width="15" d="M16779.5,-5844.56C17053.4,-5694.9 17414.5,-5491.61 17725,-5297 18028.6,-5106.7 18359.8,-4877.9 18617.4,-4694.87"/>
<polygon fill="black" stroke="black" stroke-width="15" points="18625.3,-4705.41 18625.8,-4688.92 18610.1,-4684.02 18625.3,-4705.41"/>
<text text-anchor="middle" x="17710.5" y="-5300.8" font-family="Times,serif" font-size="14.00">96</text>
</g>
<!-- Inform User_Repair (Simple) -->
<g id="node17" class="node"><title>Inform User_Repair (Simple)</title>
<ellipse fill="lightgrey" stroke="black" stroke-width="10" cx="19070.5" cy="-6030" rx="513.219" ry="513.219"/>
<text text-anchor="middle" x="19070.5" y="-6015" font-family="Times,serif" font-size="60.00">Inform User_Repair (Simple)</text>
</g>
<!-- Restart Repair_Inform User&#45;&gt;Inform User_Repair (Simple) -->
<g id="edge21" class="edge"><title>Restart Repair_Inform User&#45;&gt;Inform User_Repair (Simple)</title>
<path fill="none" stroke="black" stroke-width="15" d="M16836.7,-6065.34C17317.6,-6057.73 18052.9,-6046.09 18546.9,-6038.27"/>
<polygon fill="black" stroke="black" stroke-width="15" points="18547.3,-6051.39 18557,-6038.11 18546.8,-6025.14 18547.3,-6051.39"/>
<text text-anchor="middle" x="17710.5" y="-6055.8" font-family="Times,serif" font-size="14.00">200</text>
</g>
<!-- Repair (Complex)_Test Repair&#45;&gt;Test Repair_Inform User -->
<g id="edge7" class="edge"><title>Repair (Complex)_Test Repair&#45;&gt;Test Repair_Inform User</title>
<path fill="none" stroke="black" stroke-width="15" d="M10394.1,-5409.73C9968.03,-5517.09 9348.07,-5666.13 8800.76,-5770 6720.29,-6164.85 4207.71,-6480.58 3204.53,-6600.21"/>
<polygon fill="black" stroke="black" stroke-width="15" points="3202.64,-6587.21 3194.26,-6601.43 3205.74,-6613.28 3202.64,-6587.21"/>
<text text-anchor="middle" x="6836.48" y="-6178.8" font-family="Times,serif" font-size="14.00">632</text>
</g>
<!-- Repair (Complex)_Test Repair&#45;&gt;END -->
<g id="edge10" class="edge"><title>Repair (Complex)_Test Repair&#45;&gt;END</title>
<path fill="none" stroke="black" stroke-width="15" d="M11346.9,-5594.5C11781.8,-5900.12 12483.4,-6349.61 13158.7,-6594 14680.8,-7144.81 18809.8,-7051 20428.5,-7051 20428.5,-7051 20428.5,-7051 24508.5,-7051 25916.1,-7051 27064.1,-5280.82 27209.8,-5046.5"/>
<polygon fill="black" stroke="black" stroke-width="15" points="27221,-5053.35 27215.2,-5037.94 27198.7,-5039.53 27221,-5053.35"/>
<text text-anchor="middle" x="19070.5" y="-7061.8" font-family="Times,serif" font-size="14.00">136</text>
</g>
<!-- Repair (Complex)_Test Repair&#45;&gt;Test Repair_Restart Repair -->
<g id="edge8" class="edge"><title>Repair (Complex)_Test Repair&#45;&gt;Test Repair_Restart Repair</title>
<path fill="none" stroke="black" stroke-width="15" d="M11428.3,-5432.86C11929.9,-5587.23 12686.6,-5820.17 13169.8,-5968.9"/>
<polygon fill="black" stroke="black" stroke-width="15" points="13166,-5981.45 13179.4,-5971.85 13173.7,-5956.37 13166,-5981.45"/>
<text text-anchor="middle" x="12273.5" y="-5696.8" font-family="Times,serif" font-size="14.00">212</text>
</g>
<!-- Test Repair_Archive Repair -->
<g id="node10" class="node"><title>Test Repair_Archive Repair</title>
<ellipse fill="lightgrey" stroke="black" stroke-width="10" cx="24507.5" cy="-3778" rx="490.05" ry="490.05"/>
<text text-anchor="middle" x="24507.5" y="-3763" font-family="Times,serif" font-size="60.00">Test Repair_Archive Repair</text>
</g>
<!-- Repair (Complex)_Test Repair&#45;&gt;Test Repair_Archive Repair -->
<g id="edge9" class="edge"><title>Repair (Complex)_Test Repair&#45;&gt;Test Repair_Archive Repair</title>
<path fill="none" stroke="black" stroke-width="15" d="M11314.2,-4915.62C12099.5,-4234.85 13931.6,-2778.15 15781.6,-2250 16268.7,-2110.93 16432.7,-2116.57 16921.4,-2250 17307,-2355.27 17342,-2521.31 17696,-2707 18054.1,-2894.87 18132.5,-2979.6 18521.8,-3089 20500,-3644.92 22966.9,-3753.36 24007.1,-3773.74"/>
<polygon fill="black" stroke="black" stroke-width="15" points="24007.1,-3786.87 24017.4,-3773.94 24007.7,-3760.62 24007.1,-3786.87"/>
<text text-anchor="middle" x="17710.5" y="-2725.8" font-family="Times,serif" font-size="14.00">1596</text>
</g>
<!-- Test Repair_Archive Repair&#45;&gt;END -->
<g id="edge29" class="edge"><title>Test Repair_Archive Repair&#45;&gt;END</title>
<path fill="none" stroke="black" stroke-width="15" d="M24953.3,-3981.52C25657.4,-4303.61 26971.6,-4904.87 27193.3,-5006.3"/>
<polygon fill="black" stroke="black" stroke-width="15" points="27187.9,-5018.26 27202.5,-5010.48 27198.9,-4994.39 27187.9,-5018.26"/>
<text text-anchor="middle" x="25866.5" y="-4403.8" font-family="Times,serif" font-size="14.00">3140</text>
</g>
<!-- Analyze Defect_Repair (Complex) -->
<g id="node11" class="node"><title>Analyze Defect_Repair (Complex)</title>
<ellipse fill="lightgrey" stroke="black" stroke-width="10" cx="8195.48" cy="-1798" rx="605.067" ry="605.067"/>
<text text-anchor="middle" x="8195.48" y="-1783" font-family="Times,serif" font-size="60.00">Analyze Defect_Repair (Complex)</text>
</g>
<!-- Analyze Defect_Repair (Complex)&#45;&gt;END -->
<g id="edge13" class="edge"><title>Analyze Defect_Repair (Complex)&#45;&gt;END</title>
<path fill="none" stroke="black" stroke-width="15" d="M8746.87,-1548.11C9886.8,-1054.12 12599.5,-0 14991.5,-0 14991.5,-0 14991.5,-0 24508.5,-0 26933.9,-0 27205,-4587.84 27224.2,-4992.56"/>
<polygon fill="black" stroke="black" stroke-width="15" points="27211.1,-4993.44 27224.7,-5002.82 27237.4,-4992.22 27211.1,-4993.44"/>
<text text-anchor="middle" x="17710.5" y="-3.8" font-family="Times,serif" font-size="14.00">8</text>
</g>
<!-- Analyze Defect_Repair (Complex)&#45;&gt;Repair (Complex)_Test Repair -->
<g id="edge11" class="edge"><title>Analyze Defect_Repair (Complex)&#45;&gt;Repair (Complex)_Test Repair</title>
<path fill="none" stroke="black" stroke-width="15" d="M8566.08,-2276.58C8836.2,-2625.85 9211.74,-3110.45 9543.48,-3535 9893.54,-3982.99 10296.3,-4493.99 10574.1,-4845.74"/>
<polygon fill="black" stroke="black" stroke-width="15" points="10563.9,-4854.05 10580.4,-4853.76 10584.5,-4837.78 10563.9,-4854.05"/>
<text text-anchor="middle" x="9554.48" y="-3538.8" font-family="Times,serif" font-size="14.00">696</text>
</g>
<!-- Analyze Defect_Repair (Complex)&#45;&gt;Repair (Complex)_Inform User -->
<g id="edge12" class="edge"><title>Analyze Defect_Repair (Complex)&#45;&gt;Repair (Complex)_Inform User</title>
<path fill="none" stroke="black" stroke-width="15" d="M8800.73,-1810.45C9265.49,-1820.03 9902.67,-1833.17 10355.4,-1842.5"/>
<polygon fill="black" stroke="black" stroke-width="15" points="10355.5,-1855.63 10365.8,-1842.71 10356,-1829.38 10355.5,-1855.63"/>
<text text-anchor="middle" x="9554.48" y="-1829.8" font-family="Times,serif" font-size="14.00">292</text>
</g>
<!-- Inform User_Test Repair -->
<g id="node13" class="node"><title>Inform User_Test Repair</title>
<ellipse fill="lightgrey" stroke="black" stroke-width="10" cx="21788.5" cy="-2679" rx="438.312" ry="438.312"/>
<text text-anchor="middle" x="21788.5" y="-2664" font-family="Times,serif" font-size="60.00">Inform User_Test Repair</text>
</g>
<!-- Repair (Complex)_Inform User&#45;&gt;Inform User_Test Repair -->
<g id="edge16" class="edge"><title>Repair (Complex)_Inform User&#45;&gt;Inform User_Test Repair</title>
<path fill="none" stroke="black" stroke-width="15" d="M11460.5,-1798.12C12842.9,-1670.92 16590.9,-1417.02 19619.2,-2045 20235.3,-2172.77 20930.8,-2389.41 21364.2,-2533.34"/>
<polygon fill="black" stroke="black" stroke-width="15" points="21360.1,-2545.82 21373.8,-2536.52 21368.4,-2520.91 21360.1,-2545.82"/>
<text text-anchor="middle" x="16351.5" y="-1702.8" font-family="Times,serif" font-size="14.00">316</text>
</g>
<!-- Inform User_Test Repair&#45;&gt;END -->
<g id="edge42" class="edge"><title>Inform User_Test Repair&#45;&gt;END</title>
<path fill="none" stroke="black" stroke-width="15" d="M22226.9,-2692.34C22863.4,-2726.15 24070,-2845.28 24997.5,-3264 26053.8,-3740.86 27050.3,-4825.16 27204.8,-4997.67"/>
<polygon fill="black" stroke="black" stroke-width="15" points="27195.1,-5006.48 27211.5,-5005.19 27214.6,-4988.99 27195.1,-5006.48"/>
<text text-anchor="middle" x="24507.5" y="-3267.8" font-family="Times,serif" font-size="14.00">36</text>
</g>
<!-- Inform User_Test Repair&#45;&gt;Test Repair_Restart Repair -->
<g id="edge40" class="edge"><title>Inform User_Test Repair&#45;&gt;Test Repair_Restart Repair</title>
<path fill="none" stroke="black" stroke-width="15" d="M21628.9,-3087.47C21259.3,-4013.32 20319.1,-6217.29 19619.2,-6552 19238.7,-6733.97 16605.8,-6653.52 15781.6,-6567 15194.3,-6505.36 14531.4,-6351.39 14099.3,-6239.38"/>
<polygon fill="black" stroke="black" stroke-width="15" points="14102.4,-6226.63 14089.4,-6236.82 14095.8,-6252.04 14102.4,-6226.63"/>
<text text-anchor="middle" x="17710.5" y="-6662.8" font-family="Times,serif" font-size="14.00">204</text>
</g>
<!-- Inform User_Test Repair&#45;&gt;Test Repair_Archive Repair -->
<g id="edge41" class="edge"><title>Inform User_Test Repair&#45;&gt;Test Repair_Archive Repair</title>
<path fill="none" stroke="black" stroke-width="15" d="M22195.1,-2843.09C22689.8,-3043.17 23524,-3380.58 24043.3,-3590.66"/>
<polygon fill="black" stroke="black" stroke-width="15" points="24038.7,-3602.93 24052.9,-3594.52 24048.5,-3578.6 24038.7,-3602.93"/>
<text text-anchor="middle" x="23148.5" y="-3232.8" font-family="Times,serif" font-size="14.00">496</text>
</g>
<!-- Repair (Simple)_Inform User&#45;&gt;Inform User_Test Repair -->
<g id="edge23" class="edge"><title>Repair (Simple)_Inform User&#45;&gt;Inform User_Test Repair</title>
<path fill="none" stroke="black" stroke-width="15" d="M19583.5,-2588.12C20090,-2609 20857.2,-2640.64 21339.9,-2660.54"/>
<polygon fill="black" stroke="black" stroke-width="15" points="21339.7,-2673.67 21350.2,-2660.97 21340.8,-2647.44 21339.7,-2673.67"/>
<text text-anchor="middle" x="20429.5" y="-2626.8" font-family="Times,serif" font-size="14.00">420</text>
</g>
<!-- Repair (Simple)_Test Repair&#45;&gt;Test Repair_Inform User -->
<g id="edge36" class="edge"><title>Repair (Simple)_Test Repair&#45;&gt;Test Repair_Inform User</title>
<path fill="none" stroke="black" stroke-width="15" d="M21596.8,-5485.18C21385.9,-5932.11 21000.3,-6584.48 20440.5,-6894 19906.9,-7188.97 19681.1,-6980 19071.5,-6980 14991.5,-6980 14991.5,-6980 14991.5,-6980 10384.5,-6980 4804.96,-6744.62 3206.68,-6672.65"/>
<polygon fill="black" stroke="black" stroke-width="15" points="3207.05,-6659.53 3196.47,-6672.19 3205.87,-6685.76 3207.05,-6659.53"/>
<text text-anchor="middle" x="12273.5" y="-6961.8" font-family="Times,serif" font-size="14.00">596</text>
</g>
<!-- Repair (Simple)_Test Repair&#45;&gt;END -->
<g id="edge39" class="edge"><title>Repair (Simple)_Test Repair&#45;&gt;END</title>
<path fill="none" stroke="black" stroke-width="15" d="M22290.5,-5021C23554,-5021 26797.3,-5021 27187,-5021"/>
<polygon fill="black" stroke="black" stroke-width="15" points="27187.2,-5034.13 27197.2,-5021 27187.2,-5007.88 27187.2,-5034.13"/>
<text text-anchor="middle" x="24507.5" y="-5024.8" font-family="Times,serif" font-size="14.00">128</text>
</g>
<!-- Repair (Simple)_Test Repair&#45;&gt;Test Repair_Restart Repair -->
<g id="edge37" class="edge"><title>Repair (Simple)_Test Repair&#45;&gt;Test Repair_Restart Repair</title>
<path fill="none" stroke="black" stroke-width="15" d="M21600.3,-5486.49C21391.8,-5935.11 21007.5,-6587.24 20440.5,-6877 20305.4,-6946.05 15124.6,-6915.99 14978,-6877 14629,-6784.22 14275.8,-6577.69 14019.1,-6402.45"/>
<polygon fill="black" stroke="black" stroke-width="15" points="14026.4,-6391.56 14010.7,-6396.75 14011.6,-6413.23 14026.4,-6391.56"/>
<text text-anchor="middle" x="17710.5" y="-6921.8" font-family="Times,serif" font-size="14.00">948</text>
</g>
<!-- Repair (Simple)_Test Repair&#45;&gt;Test Repair_Archive Repair -->
<g id="edge38" class="edge"><title>Repair (Simple)_Test Repair&#45;&gt;Test Repair_Archive Repair</title>
<path fill="none" stroke="black" stroke-width="15" d="M22245.4,-4812.42C22747.7,-4582.6 23550.8,-4215.2 24052.4,-3985.72"/>
<polygon fill="black" stroke="black" stroke-width="15" points="24058,-3997.61 24061.6,-3981.51 24047.1,-3973.74 24058,-3997.61"/>
<text text-anchor="middle" x="23148.5" y="-4403.8" font-family="Times,serif" font-size="14.00">1048</text>
</g>
<!-- Inform User_Repair (Complex)&#45;&gt;Repair (Complex)_Test Repair -->
<g id="edge22" class="edge"><title>Inform User_Repair (Complex)&#45;&gt;Repair (Complex)_Test Repair</title>
<path fill="none" stroke="black" stroke-width="15" d="M18552.8,-4549.2C18122.3,-4692.3 17489.9,-4882.51 16921.4,-4976 14930.4,-5303.45 12522.4,-5306.89 11461.9,-5288.92"/>
<polygon fill="black" stroke="black" stroke-width="15" points="11462,-5275.79 11451.8,-5288.75 11461.6,-5302.04 11462,-5275.79"/>
<text text-anchor="middle" x="14992.5" y="-5200.8" font-family="Times,serif" font-size="14.00">1580</text>
</g>
<!-- Inform User_Repair (Simple)&#45;&gt;Repair (Simple)_Test Repair -->
<g id="edge28" class="edge"><title>Inform User_Repair (Simple)&#45;&gt;Repair (Simple)_Test Repair</title>
<path fill="none" stroke="black" stroke-width="15" d="M19552,-5851.5C20046.9,-5667.64 20813.7,-5382.75 21308.2,-5199.06"/>
<polygon fill="black" stroke="black" stroke-width="15" points="21312.8,-5211.33 21317.6,-5195.55 21303.7,-5186.73 21312.8,-5211.33"/>
<text text-anchor="middle" x="20429.5" y="-5529.8" font-family="Times,serif" font-size="14.00">864</text>
</g>
<!-- Analyze Defect_Repair (Simple) -->
<g id="node18" class="node"><title>Analyze Defect_Repair (Simple)</title>
<ellipse fill="lightgrey" stroke="black" stroke-width="10" cx="16351.5" cy="-921" rx="569.856" ry="569.856"/>
<text text-anchor="middle" x="16351.5" y="-906" font-family="Times,serif" font-size="60.00">Analyze Defect_Repair (Simple)</text>
</g>
<!-- Analyze Defect_Repair (Simple)&#45;&gt;Repair (Simple)_Inform User -->
<g id="edge24" class="edge"><title>Analyze Defect_Repair (Simple)&#45;&gt;Repair (Simple)_Inform User</title>
<path fill="none" stroke="black" stroke-width="15" d="M16839.4,-1215.98C17345.6,-1522.67 18131.4,-1998.68 18622.3,-2296.12"/>
<polygon fill="black" stroke="black" stroke-width="15" points="18615.6,-2307.4 18631,-2301.36 18629.2,-2284.95 18615.6,-2307.4"/>
<text text-anchor="middle" x="17710.5" y="-1747.8" font-family="Times,serif" font-size="14.00">340</text>
</g>
<!-- Analyze Defect_Repair (Simple)&#45;&gt;Repair (Simple)_Test Repair -->
<g id="edge25" class="edge"><title>Analyze Defect_Repair (Simple)&#45;&gt;Repair (Simple)_Test Repair</title>
<path fill="none" stroke="black" stroke-width="15" d="M16915.4,-1004.53C17607.8,-1129.95 18792.7,-1420.49 19619.2,-2030 20543.7,-2711.76 21235.9,-3903.57 21568.3,-4558.05"/>
<polygon fill="black" stroke="black" stroke-width="15" points="21556.7,-4564.19 21573,-4567.17 21580.1,-4552.31 21556.7,-4564.19"/>
<text text-anchor="middle" x="19070.5" y="-2033.8" font-family="Times,serif" font-size="14.00">932</text>
</g>
<!-- Register_Analyze Defect -->
<g id="node19" class="node"><title>Register_Analyze Defect</title>
<ellipse fill="lightgrey" stroke="black" stroke-width="10" cx="5476.48" cy="-1798" rx="439.227" ry="439.227"/>
<text text-anchor="middle" x="5476.48" y="-1783" font-family="Times,serif" font-size="60.00">Register_Analyze Defect</text>
</g>
<!-- Register_Analyze Defect&#45;&gt;Analyze Defect_Repair (Complex) -->
<g id="edge30" class="edge"><title>Register_Analyze Defect&#45;&gt;Analyze Defect_Repair (Complex)</title>
<path fill="none" stroke="black" stroke-width="15" d="M5915.9,-1798C6366.93,-1798 7073.23,-1798 7579.91,-1798"/>
<polygon fill="black" stroke="black" stroke-width="15" points="7579.97,-1811.13 7589.97,-1798 7579.97,-1784.88 7579.97,-1811.13"/>
<text text-anchor="middle" x="6836.48" y="-1801.8" font-family="Times,serif" font-size="14.00">996</text>
</g>
<!-- Register_Analyze Defect&#45;&gt;Analyze Defect_Repair (Simple) -->
<g id="edge31" class="edge"><title>Register_Analyze Defect&#45;&gt;Analyze Defect_Repair (Simple)</title>
<path fill="none" stroke="black" stroke-width="15" d="M5758.15,-1460.96C6213.07,-955.056 7164.87,-58 8194.48,-58 8194.48,-58 8194.48,-58 13633.5,-58 14431,-58 15301.1,-399.947 15836.3,-653.351"/>
<polygon fill="black" stroke="black" stroke-width="15" points="15831.1,-665.397 15845.8,-657.823 15842.3,-641.679 15831.1,-665.397"/>
<text text-anchor="middle" x="10914.5" y="-61.8" font-family="Times,serif" font-size="14.00">1272</text>
</g>
<!-- Analyze Defect_Inform User -->
<g id="node20" class="node"><title>Analyze Defect_Inform User</title>
<ellipse fill="lightgrey" stroke="black" stroke-width="10" cx="16351.5" cy="-4461" rx="506.077" ry="506.077"/>
<text text-anchor="middle" x="16351.5" y="-4446" font-family="Times,serif" font-size="60.00">Analyze Defect_Inform User</text>
</g>
<!-- Register_Analyze Defect&#45;&gt;Analyze Defect_Inform User -->
<g id="edge32" class="edge"><title>Register_Analyze Defect&#45;&gt;Analyze Defect_Inform User</title>
<path fill="none" stroke="black" stroke-width="15" d="M5892.87,-1937.87C6315.69,-2075.69 6992.18,-2283.71 7590.19,-2412 9289.82,-2776.6 9766.48,-2579.06 11463.2,-2957 13106,-3322.93 14995.9,-3971.72 15866,-4283.72"/>
<polygon fill="black" stroke="black" stroke-width="15" points="15861.7,-4296.13 15875.6,-4287.15 15870.6,-4271.42 15861.7,-4296.13"/>
<text text-anchor="middle" x="10914.5" y="-2960.8" font-family="Times,serif" font-size="14.00">2148</text>
</g>
<!-- Analyze Defect_Inform User&#45;&gt;Inform User_Repair (Complex) -->
<g id="edge34" class="edge"><title>Analyze Defect_Inform User&#45;&gt;Inform User_Repair (Complex)</title>
<path fill="none" stroke="black" stroke-width="15" d="M16857.6,-4443.53C17327.3,-4427.27 18025.9,-4403.1 18511.9,-4386.29"/>
<polygon fill="black" stroke="black" stroke-width="15" points="18512.3,-4399.41 18521.9,-4385.95 18511.4,-4373.17 18512.3,-4399.41"/>
<text text-anchor="middle" x="17710.5" y="-4417.8" font-family="Times,serif" font-size="14.00">1484</text>
</g>
<!-- Analyze Defect_Inform User&#45;&gt;Inform User_Repair (Simple) -->
<g id="edge35" class="edge"><title>Analyze Defect_Inform User&#45;&gt;Inform User_Repair (Simple)</title>
<path fill="none" stroke="black" stroke-width="15" d="M16731.6,-4795.93C16990.4,-5012.84 17348.2,-5290.46 17696,-5487 17972.9,-5643.46 18303.8,-5775.77 18571.5,-5870.61"/>
<polygon fill="black" stroke="black" stroke-width="15" points="18567.2,-5883 18581,-5873.96 18576,-5858.26 18567.2,-5883"/>
<text text-anchor="middle" x="17710.5" y="-5490.8" font-family="Times,serif" font-size="14.00">664</text>
</g>
<!-- START_Register -->
<g id="node21" class="node"><title>START_Register</title>
<ellipse fill="lightgrey" stroke="black" stroke-width="10" cx="2758.48" cy="-1798" rx="308.097" ry="308.097"/>
<text text-anchor="middle" x="2758.48" y="-1783" font-family="Times,serif" font-size="60.00">START_Register</text>
</g>
<!-- START_Register&#45;&gt;Register_Analyze Defect -->
<g id="edge33" class="edge"><title>START_Register&#45;&gt;Register_Analyze Defect</title>
<path fill="none" stroke="black" stroke-width="15" d="M3067.07,-1798C3546.32,-1798 4473.53,-1798 5027.21,-1798"/>
<polygon fill="black" stroke="black" stroke-width="15" points="5027.36,-1811.13 5037.36,-1798 5027.36,-1784.88 5027.36,-1811.13"/>
<text text-anchor="middle" x="4117.48" y="-1801.8" font-family="Times,serif" font-size="14.00">4416</text>
</g>
<!-- START -->
<g id="node22" class="node"><title>START</title>
<ellipse fill="none" stroke="black" cx="39.4783" cy="-1798" rx="39.7935" ry="18"/>
<text text-anchor="middle" x="39.4783" y="-1794.3" font-family="Times,serif" font-size="14.00">START</text>
</g>
<!-- START&#45;&gt;START_Register -->
<g id="edge43" class="edge"><title>START&#45;&gt;START_Register</title>
<path fill="none" stroke="black" stroke-width="15" d="M79.1472,-1798C334.447,-1798 1787.49,-1798 2440.13,-1798"/>
<polygon fill="black" stroke="black" stroke-width="15" points="2440.16,-1811.13 2450.16,-1798 2440.16,-1784.88 2440.16,-1811.13"/>
<text text-anchor="middle" x="1398.48" y="-1801.8" font-family="Times,serif" font-size="14.00">4416</text>
</g>
</g>
</svg>
