<?xml version="1.0" encoding="UTF-8" standalone="no"?>
<!DOCTYPE svg PUBLIC "-//W3C//DTD SVG 1.1//EN"
 "http://www.w3.org/Graphics/SVG/1.1/DTD/svg11.dtd">
<!-- Generated by graphviz version 2.38.0 (20140413.2041)
 -->
<!-- Title: %3 Pages: 1 -->
<svg width="38138pt" height="11540pt"
 viewBox="0.00 0.00 38138.11 11540.45" xmlns="http://www.w3.org/2000/svg" xmlns:xlink="http://www.w3.org/1999/xlink">
<g id="graph0" class="graph" transform="scale(1 1) rotate(0) translate(4 11536.4)">
<title>%3</title>
<polygon fill="white" stroke="none" points="-4,4 -4,-11536.4 38134.1,-11536.4 38134.1,4 -4,4"/>
<!-- Test Repair_Archive Repair -->
<g id="node1" class="node"><title>Test Repair_Archive Repair</title>
<ellipse fill="lightgrey" stroke="black" stroke-width="10" cx="35382.1" cy="-5491.45" rx="490.05" ry="490.05"/>
<text text-anchor="middle" x="35382.1" y="-5476.45" font-family="Times,serif" font-size="60.00">Test Repair_Archive Repair</text>
</g>
<!-- END -->
<g id="node2" class="node"><title>END</title>
<ellipse fill="none" stroke="black" cx="38101.1" cy="-7550.45" rx="29.4969" ry="18"/>
<text text-anchor="middle" x="38101.1" y="-7546.75" font-family="Times,serif" font-size="14.00">END</text>
</g>
<!-- Test Repair_Archive Repair&#45;&gt;END -->
<g id="edge1" class="edge"><title>Test Repair_Archive Repair&#45;&gt;END</title>
<path fill="none" stroke="black" stroke-width="15" d="M35773.1,-5787C36467.4,-6313.12 37864.6,-7371.99 38073.7,-7530.42"/>
<polygon fill="black" stroke="black" stroke-width="15" points="38066.1,-7541.11 38082,-7536.69 38081.9,-7520.19 38066.1,-7541.11"/>
<text text-anchor="middle" x="36741.1" y="-6524.25" font-family="Times,serif" font-size="14.00">785</text>
</g>
<!-- Inform User_Repair (Simple) -->
<g id="node3" class="node"><title>Inform User_Repair (Simple)</title>
<ellipse fill="lightgrey" stroke="black" stroke-width="10" cx="29945.1" cy="-9371.45" rx="513.219" ry="513.219"/>
<text text-anchor="middle" x="29945.1" y="-9356.45" font-family="Times,serif" font-size="60.00">Inform User_Repair (Simple)</text>
</g>
<!-- Repair (Simple)_Test Repair -->
<g id="node4" class="node"><title>Repair (Simple)_Test Repair</title>
<ellipse fill="lightgrey" stroke="black" stroke-width="10" cx="10914.1" cy="-1603.45" rx="502.092" ry="502.092"/>
<text text-anchor="middle" x="10914.1" y="-1588.45" font-family="Times,serif" font-size="60.00">Repair (Simple)_Test Repair</text>
</g>
<!-- Inform User_Repair (Simple)&#45;&gt;Repair (Simple)_Test Repair -->
<g id="edge2" class="edge"><title>Inform User_Repair (Simple)&#45;&gt;Repair (Simple)_Test Repair</title>
<path fill="none" stroke="black" stroke-width="15" d="M29503.9,-9108.84C28774.7,-8699.43 27258.2,-7955.45 25868.1,-7955.45 13632.1,-7955.45 13632.1,-7955.45 13632.1,-7955.45 12361.7,-7955.45 11333.4,-3606.27 11016.4,-2105.48"/>
<polygon fill="black" stroke="black" stroke-width="15" points="11029.2,-2102.68 11014.3,-2095.6 11003.5,-2108.1 11029.2,-2102.68"/>
<text text-anchor="middle" x="20429.1" y="-7959.25" font-family="Times,serif" font-size="14.00">216</text>
</g>
<!-- Repair (Simple)_Test Repair&#45;&gt;Test Repair_Archive Repair -->
<g id="edge14" class="edge"><title>Repair (Simple)_Test Repair&#45;&gt;Test Repair_Archive Repair</title>
<path fill="none" stroke="black" stroke-width="15" d="M11358,-1368.82C11884.7,-1112.06 12797.8,-736.446 13632.1,-736.446 13632.1,-736.446 13632.1,-736.446 32664.1,-736.446 34609.5,-736.446 35180.8,-3774.04 35331.8,-4993.56"/>
<polygon fill="black" stroke="black" stroke-width="15" points="35318.8,-4995.5 35333.1,-5003.82 35344.9,-4992.28 35318.8,-4995.5"/>
<text text-anchor="middle" x="23148.1" y="-740.246" font-family="Times,serif" font-size="14.00">262</text>
</g>
<!-- Repair (Simple)_Test Repair&#45;&gt;END -->
<g id="edge17" class="edge"><title>Repair (Simple)_Test Repair&#45;&gt;END</title>
<path fill="none" stroke="black" stroke-width="15" d="M11343,-1342.24C11864.1,-1049.53 12780.4,-615.446 13632.1,-615.446 13632.1,-615.446 13632.1,-615.446 35383.1,-615.446 36976.8,-615.446 38020.4,-7045.04 38095.7,-7522.48"/>
<polygon fill="black" stroke="black" stroke-width="15" points="38082.8,-7524.52 38097.3,-7532.36 38108.7,-7520.44 38082.8,-7524.52"/>
<text text-anchor="middle" x="24507.1" y="-619.246" font-family="Times,serif" font-size="14.00">32</text>
</g>
<!-- Test Repair_Inform User -->
<g id="node16" class="node"><title>Test Repair_Inform User</title>
<ellipse fill="lightgrey" stroke="black" stroke-width="10" cx="13633.1" cy="-4925.45" rx="438.312" ry="438.312"/>
<text text-anchor="middle" x="13633.1" y="-4910.45" font-family="Times,serif" font-size="60.00">Test Repair_Inform User</text>
</g>
<!-- Repair (Simple)_Test Repair&#45;&gt;Test Repair_Inform User -->
<g id="edge15" class="edge"><title>Repair (Simple)_Test Repair&#45;&gt;Test Repair_Inform User</title>
<path fill="none" stroke="black" stroke-width="15" d="M11232.8,-1991.84C11767.2,-2645.3 12837.8,-3954.27 13348.5,-4578.65"/>
<polygon fill="black" stroke="black" stroke-width="15" points="13338.3,-4586.99 13354.8,-4586.42 13358.7,-4570.37 13338.3,-4586.99"/>
<text text-anchor="middle" x="12273.1" y="-3268.25" font-family="Times,serif" font-size="14.00">149</text>
</g>
<!-- Test Repair_Restart Repair -->
<g id="node17" class="node"><title>Test Repair_Restart Repair</title>
<ellipse fill="lightgrey" stroke="black" stroke-width="10" cx="24507.1" cy="-2689.45" rx="473.523" ry="473.523"/>
<text text-anchor="middle" x="24507.1" y="-2674.45" font-family="Times,serif" font-size="60.00">Test Repair_Restart Repair</text>
</g>
<!-- Repair (Simple)_Test Repair&#45;&gt;Test Repair_Restart Repair -->
<g id="edge16" class="edge"><title>Repair (Simple)_Test Repair&#45;&gt;Test Repair_Restart Repair</title>
<path fill="none" stroke="black" stroke-width="15" d="M11397.9,-1469.31C11937.9,-1331.33 12840.6,-1136.45 13632.1,-1136.45 13632.1,-1136.45 13632.1,-1136.45 20430.1,-1136.45 21279.3,-1136.45 21532.3,-974.628 22337.8,-1243.45 23047.4,-1480.23 23744.7,-2014.22 24149.8,-2362.81"/>
<polygon fill="black" stroke="black" stroke-width="15" points="24141.3,-2372.88 24157.5,-2369.47 24158.5,-2353 24141.3,-2372.88"/>
<text text-anchor="middle" x="17711.1" y="-1140.25" font-family="Times,serif" font-size="14.00">237</text>
</g>
<!-- Restart Repair_Inform User -->
<g id="node5" class="node"><title>Restart Repair_Inform User</title>
<ellipse fill="lightgrey" stroke="black" stroke-width="10" cx="27226.1" cy="-5916.45" rx="485.151" ry="485.151"/>
<text text-anchor="middle" x="27226.1" y="-5901.45" font-family="Times,serif" font-size="60.00">Restart Repair_Inform User</text>
</g>
<!-- Restart Repair_Inform User&#45;&gt;Inform User_Repair (Simple) -->
<g id="edge3" class="edge"><title>Restart Repair_Inform User&#45;&gt;Inform User_Repair (Simple)</title>
<path fill="none" stroke="black" stroke-width="15" d="M27526.6,-6297.32C28041.5,-6952.01 29090,-8285.34 29620.8,-8960.32"/>
<polygon fill="black" stroke="black" stroke-width="15" points="29610.5,-8968.48 29627,-8968.23 29631.2,-8952.26 29610.5,-8968.48"/>
<text text-anchor="middle" x="28585.1" y="-7647.25" font-family="Times,serif" font-size="14.00">50</text>
</g>
<!-- Inform User_Repair (Complex) -->
<g id="node6" class="node"><title>Inform User_Repair (Complex)</title>
<ellipse fill="lightgrey" stroke="black" stroke-width="10" cx="29945.1" cy="-5736.45" rx="548.93" ry="548.93"/>
<text text-anchor="middle" x="29945.1" y="-5721.45" font-family="Times,serif" font-size="60.00">Inform User_Repair (Complex)</text>
</g>
<!-- Restart Repair_Inform User&#45;&gt;Inform User_Repair (Complex) -->
<g id="edge4" class="edge"><title>Restart Repair_Inform User&#45;&gt;Inform User_Repair (Complex)</title>
<path fill="none" stroke="black" stroke-width="15" d="M27710.5,-5884.42C28180.5,-5853.28 28893.8,-5806.03 29387.3,-5773.34"/>
<polygon fill="black" stroke="black" stroke-width="15" points="29388.3,-5786.42 29397.4,-5772.66 29386.6,-5760.23 29388.3,-5786.42"/>
<text text-anchor="middle" x="28585.1" y="-5830.25" font-family="Times,serif" font-size="14.00">24</text>
</g>
<!-- Repair (Complex)_Test Repair -->
<g id="node13" class="node"><title>Repair (Complex)_Test Repair</title>
<ellipse fill="lightgrey" stroke="black" stroke-width="10" cx="21789.1" cy="-6152.45" rx="537.302" ry="537.302"/>
<text text-anchor="middle" x="21789.1" y="-6137.45" font-family="Times,serif" font-size="60.00">Repair (Complex)_Test Repair</text>
</g>
<!-- Inform User_Repair (Complex)&#45;&gt;Repair (Complex)_Test Repair -->
<g id="edge13" class="edge"><title>Inform User_Repair (Complex)&#45;&gt;Repair (Complex)_Test Repair</title>
<path fill="none" stroke="black" stroke-width="15" d="M29405.4,-5636.48C28967.9,-5560.6 28334,-5462.7 27774.8,-5422.45 25751.6,-5276.78 23362.1,-5769.96 22320.2,-6018.26"/>
<polygon fill="black" stroke="black" stroke-width="15" points="22316.9,-6005.54 22310.3,-6020.63 22323,-6031.07 22316.9,-6005.54"/>
<text text-anchor="middle" x="25867.1" y="-5445.25" font-family="Times,serif" font-size="14.00">395</text>
</g>
<!-- Analyze Defect_Inform User -->
<g id="node7" class="node"><title>Analyze Defect_Inform User</title>
<ellipse fill="lightgrey" stroke="black" stroke-width="10" cx="27226.1" cy="-9458.45" rx="506.077" ry="506.077"/>
<text text-anchor="middle" x="27226.1" y="-9443.45" font-family="Times,serif" font-size="60.00">Analyze Defect_Inform User</text>
</g>
<!-- Analyze Defect_Inform User&#45;&gt;Inform User_Repair (Simple) -->
<g id="edge5" class="edge"><title>Analyze Defect_Inform User&#45;&gt;Inform User_Repair (Simple)</title>
<path fill="none" stroke="black" stroke-width="15" d="M27732.2,-9442.27C28213.5,-9426.86 28935,-9403.76 29421.9,-9388.17"/>
<polygon fill="black" stroke="black" stroke-width="15" points="29422.3,-9401.29 29431.9,-9387.85 29421.5,-9375.05 29422.3,-9401.29"/>
<text text-anchor="middle" x="28585.1" y="-9418.25" font-family="Times,serif" font-size="14.00">166</text>
</g>
<!-- Analyze Defect_Inform User&#45;&gt;Inform User_Repair (Complex) -->
<g id="edge6" class="edge"><title>Analyze Defect_Inform User&#45;&gt;Inform User_Repair (Complex)</title>
<path fill="none" stroke="black" stroke-width="15" d="M27538.3,-9059.83C27818.9,-8698.19 28240.8,-8148.78 28596.1,-7662.45 28957.7,-7167.53 29359,-6590.47 29628.9,-6197.96"/>
<polygon fill="black" stroke="black" stroke-width="15" points="29639.8,-6205.27 29634.6,-6189.59 29618.2,-6190.39 29639.8,-6205.27"/>
<text text-anchor="middle" x="28585.1" y="-7666.25" font-family="Times,serif" font-size="14.00">371</text>
</g>
<!-- Repair (Simple)_Inform User -->
<g id="node8" class="node"><title>Repair (Simple)_Inform User</title>
<ellipse fill="lightgrey" stroke="black" stroke-width="10" cx="29945.1" cy="-2360.45" rx="513.219" ry="513.219"/>
<text text-anchor="middle" x="29945.1" y="-2345.45" font-family="Times,serif" font-size="60.00">Repair (Simple)_Inform User</text>
</g>
<!-- Inform User_Test Repair -->
<g id="node9" class="node"><title>Inform User_Test Repair</title>
<ellipse fill="lightgrey" stroke="black" stroke-width="10" cx="32663.1" cy="-4112.45" rx="438.312" ry="438.312"/>
<text text-anchor="middle" x="32663.1" y="-4097.45" font-family="Times,serif" font-size="60.00">Inform User_Test Repair</text>
</g>
<!-- Repair (Simple)_Inform User&#45;&gt;Inform User_Test Repair -->
<g id="edge7" class="edge"><title>Repair (Simple)_Inform User&#45;&gt;Inform User_Test Repair</title>
<path fill="none" stroke="black" stroke-width="15" d="M30376.8,-2638.3C30903.3,-2977.88 31785.6,-3547.01 32285.9,-3869.75"/>
<polygon fill="black" stroke="black" stroke-width="15" points="32278.8,-3880.8 32294.3,-3875.2 32293,-3858.75 32278.8,-3880.8"/>
<text text-anchor="middle" x="31304.1" y="-3240.25" font-family="Times,serif" font-size="14.00">105</text>
</g>
<!-- Inform User_Test Repair&#45;&gt;Test Repair_Archive Repair -->
<g id="edge27" class="edge"><title>Inform User_Test Repair&#45;&gt;Test Repair_Archive Repair</title>
<path fill="none" stroke="black" stroke-width="15" d="M33054.5,-4310.57C33552.6,-4563.42 34412.4,-4999.77 34935.6,-5265.35"/>
<polygon fill="black" stroke="black" stroke-width="15" points="34930,-5277.21 34944.9,-5270.03 34941.9,-5253.8 34930,-5277.21"/>
<text text-anchor="middle" x="34023.1" y="-4805.25" font-family="Times,serif" font-size="14.00">124</text>
</g>
<!-- Inform User_Test Repair&#45;&gt;END -->
<g id="edge29" class="edge"><title>Inform User_Test Repair&#45;&gt;END</title>
<path fill="none" stroke="black" stroke-width="15" d="M32976.3,-4419.37C33390.1,-4815.48 34154.1,-5510.64 34892.1,-5990.45 36116,-6786.2 37806,-7439.18 38066,-7537.62"/>
<polygon fill="black" stroke="black" stroke-width="15" points="38061.6,-7550 38075.6,-7541.26 38070.9,-7525.45 38061.6,-7550"/>
<text text-anchor="middle" x="35382.1" y="-6552.25" font-family="Times,serif" font-size="14.00">9</text>
</g>
<!-- Inform User_Test Repair&#45;&gt;Test Repair_Restart Repair -->
<g id="edge28" class="edge"><title>Inform User_Test Repair&#45;&gt;Test Repair_Restart Repair</title>
<path fill="none" stroke="black" stroke-width="15" d="M32230.9,-4037.19C30834.4,-3793.48 26441.9,-3026.92 24983.8,-2772.46"/>
<polygon fill="black" stroke="black" stroke-width="15" points="24986,-2759.53 24973.9,-2770.74 24981.5,-2785.39 24986,-2759.53"/>
<text text-anchor="middle" x="28585.1" y="-3405.25" font-family="Times,serif" font-size="14.00">51</text>
</g>
<!-- START_Register -->
<g id="node10" class="node"><title>START_Register</title>
<ellipse fill="lightgrey" stroke="black" stroke-width="10" cx="2758.11" cy="-9736.45" rx="308.097" ry="308.097"/>
<text text-anchor="middle" x="2758.11" y="-9721.45" font-family="Times,serif" font-size="60.00">START_Register</text>
</g>
<!-- Register_Analyze Defect -->
<g id="node11" class="node"><title>Register_Analyze Defect</title>
<ellipse fill="lightgrey" stroke="black" stroke-width="10" cx="5477.11" cy="-9736.45" rx="439.227" ry="439.227"/>
<text text-anchor="middle" x="5477.11" y="-9721.45" font-family="Times,serif" font-size="60.00">Register_Analyze Defect</text>
</g>
<!-- START_Register&#45;&gt;Register_Analyze Defect -->
<g id="edge8" class="edge"><title>START_Register&#45;&gt;Register_Analyze Defect</title>
<path fill="none" stroke="black" stroke-width="15" d="M3066.49,-9736.45C3545.78,-9736.45 4473.53,-9736.45 5027.55,-9736.45"/>
<polygon fill="black" stroke="black" stroke-width="15" points="5027.71,-9749.57 5037.71,-9736.45 5027.71,-9723.32 5027.71,-9749.57"/>
<text text-anchor="middle" x="4118.11" y="-9740.25" font-family="Times,serif" font-size="14.00">1104</text>
</g>
<!-- Register_Analyze Defect&#45;&gt;Analyze Defect_Inform User -->
<g id="edge31" class="edge"><title>Register_Analyze Defect&#45;&gt;Analyze Defect_Inform User</title>
<path fill="none" stroke="black" stroke-width="15" d="M5753.87,-10077.7C6205.17,-10594.9 7155.92,-11517.4 8195.11,-11517.4 8195.11,-11517.4 8195.11,-11517.4 23149.1,-11517.4 24649,-11517.4 26158.1,-10392.9 26843.6,-9805.98"/>
<polygon fill="black" stroke="black" stroke-width="15" points="26852.3,-9815.79 26851.4,-9799.31 26835.3,-9795.86 26852.3,-9815.79"/>
<text text-anchor="middle" x="16351.1" y="-11521.2" font-family="Times,serif" font-size="14.00">537</text>
</g>
<!-- Analyze Defect_Repair (Simple) -->
<g id="node15" class="node"><title>Analyze Defect_Repair (Simple)</title>
<ellipse fill="lightgrey" stroke="black" stroke-width="10" cx="8196.11" cy="-1603.45" rx="569.856" ry="569.856"/>
<text text-anchor="middle" x="8196.11" y="-1588.45" font-family="Times,serif" font-size="60.00">Analyze Defect_Repair (Simple)</text>
</g>
<!-- Register_Analyze Defect&#45;&gt;Analyze Defect_Repair (Simple) -->
<g id="edge32" class="edge"><title>Register_Analyze Defect&#45;&gt;Analyze Defect_Repair (Simple)</title>
<path fill="none" stroke="black" stroke-width="15" d="M5617.17,-9320.19C6069.68,-7965.65 7500.41,-3682.96 8011.45,-2153.22"/>
<polygon fill="black" stroke="black" stroke-width="15" points="8023.91,-2157.35 8014.63,-2143.71 7999.01,-2149.03 8023.91,-2157.35"/>
<text text-anchor="middle" x="6836.11" y="-5673.25" font-family="Times,serif" font-size="14.00">318</text>
</g>
<!-- Analyze Defect_Repair (Complex) -->
<g id="node18" class="node"><title>Analyze Defect_Repair (Complex)</title>
<ellipse fill="lightgrey" stroke="black" stroke-width="10" cx="19070.1" cy="-9736.45" rx="605.067" ry="605.067"/>
<text text-anchor="middle" x="19070.1" y="-9721.45" font-family="Times,serif" font-size="60.00">Analyze Defect_Repair (Complex)</text>
</g>
<!-- Register_Analyze Defect&#45;&gt;Analyze Defect_Repair (Complex) -->
<g id="edge33" class="edge"><title>Register_Analyze Defect&#45;&gt;Analyze Defect_Repair (Complex)</title>
<path fill="none" stroke="black" stroke-width="15" d="M5916.34,-9736.45C6453.39,-9736.45 7391.16,-9736.45 8195.11,-9736.45 8195.11,-9736.45 8195.11,-9736.45 16352.1,-9736.45 17074.1,-9736.45 17904,-9736.45 18454.7,-9736.45"/>
<polygon fill="black" stroke="black" stroke-width="15" points="18454.8,-9749.57 18464.8,-9736.45 18454.8,-9723.32 18454.8,-9749.57"/>
<text text-anchor="middle" x="12273.1" y="-9740.25" font-family="Times,serif" font-size="14.00">249</text>
</g>
<!-- Restart Repair_Repair (Complex) -->
<g id="node12" class="node"><title>Restart Repair_Repair (Complex)</title>
<ellipse fill="lightgrey" stroke="black" stroke-width="10" cx="19070.1" cy="-3046.45" rx="584.14" ry="584.14"/>
<text text-anchor="middle" x="19070.1" y="-3031.45" font-family="Times,serif" font-size="60.00">Restart Repair_Repair (Complex)</text>
</g>
<!-- Restart Repair_Repair (Complex)&#45;&gt;Repair (Complex)_Test Repair -->
<g id="edge9" class="edge"><title>Restart Repair_Repair (Complex)&#45;&gt;Repair (Complex)_Test Repair</title>
<path fill="none" stroke="black" stroke-width="15" d="M19497.9,-3444.18C19775.5,-3709.38 20140.2,-4070.48 20440.1,-4410.45 20813.6,-4833.77 21204.6,-5348.15 21468.7,-5707.79"/>
<polygon fill="black" stroke="black" stroke-width="15" points="21458.2,-5715.69 21474.7,-5715.99 21479.4,-5700.16 21458.2,-5715.69"/>
<text text-anchor="middle" x="20429.1" y="-4414.25" font-family="Times,serif" font-size="14.00">75</text>
</g>
<!-- Repair (Complex)_Inform User -->
<g id="node14" class="node"><title>Repair (Complex)_Inform User</title>
<ellipse fill="lightgrey" stroke="black" stroke-width="10" cx="21789.1" cy="-3046.45" rx="548.93" ry="548.93"/>
<text text-anchor="middle" x="21789.1" y="-3031.45" font-family="Times,serif" font-size="60.00">Repair (Complex)_Inform User</text>
</g>
<!-- Restart Repair_Repair (Complex)&#45;&gt;Repair (Complex)_Inform User -->
<g id="edge10" class="edge"><title>Restart Repair_Repair (Complex)&#45;&gt;Repair (Complex)_Inform User</title>
<path fill="none" stroke="black" stroke-width="15" d="M19654.4,-3046.45C20120.8,-3046.45 20770.5,-3046.45 21230.1,-3046.45"/>
<polygon fill="black" stroke="black" stroke-width="15" points="21230.2,-3059.57 21240.2,-3046.45 21230.2,-3033.32 21230.2,-3059.57"/>
<text text-anchor="middle" x="20429.1" y="-3050.25" font-family="Times,serif" font-size="14.00">6</text>
</g>
<!-- Repair (Complex)_Test Repair&#45;&gt;Test Repair_Archive Repair -->
<g id="edge23" class="edge"><title>Repair (Complex)_Test Repair&#45;&gt;Test Repair_Archive Repair</title>
<path fill="none" stroke="black" stroke-width="15" d="M22217.5,-6477.09C22731.8,-6834.59 23635.1,-7359.45 24506.1,-7359.45 24506.1,-7359.45 24506.1,-7359.45 32664.1,-7359.45 33198.9,-7359.45 34400.4,-6364.35 35010.5,-5826.73"/>
<polygon fill="black" stroke="black" stroke-width="15" points="35019.3,-5836.49 35018.1,-5820.03 35001.9,-5816.8 35019.3,-5836.49"/>
<text text-anchor="middle" x="28585.1" y="-7363.25" font-family="Times,serif" font-size="14.00">399</text>
</g>
<!-- Repair (Complex)_Test Repair&#45;&gt;END -->
<g id="edge26" class="edge"><title>Repair (Complex)_Test Repair&#45;&gt;END</title>
<path fill="none" stroke="black" stroke-width="15" d="M22188.8,-6511.78C22691.1,-6926 23598.8,-7550.45 24506.1,-7550.45 24506.1,-7550.45 24506.1,-7550.45 35383.1,-7550.45 36477.1,-7550.45 37818.9,-7550.45 38061.6,-7550.45"/>
<polygon fill="black" stroke="black" stroke-width="15" points="38061.7,-7563.57 38071.7,-7550.45 38061.7,-7537.32 38061.7,-7563.57"/>
<text text-anchor="middle" x="29945.1" y="-7554.25" font-family="Times,serif" font-size="14.00">34</text>
</g>
<!-- Repair (Complex)_Test Repair&#45;&gt;Test Repair_Inform User -->
<g id="edge24" class="edge"><title>Repair (Complex)_Test Repair&#45;&gt;Test Repair_Inform User</title>
<path fill="none" stroke="black" stroke-width="15" d="M21257.3,-6072.58C19750.9,-5845.89 15468.1,-5201.42 14076.7,-4992.04"/>
<polygon fill="black" stroke="black" stroke-width="15" points="14078.6,-4979.06 14066.7,-4990.55 14074.7,-5005.02 14078.6,-4979.06"/>
<text text-anchor="middle" x="17711.1" y="-5616.25" font-family="Times,serif" font-size="14.00">158</text>
</g>
<!-- Repair (Complex)_Test Repair&#45;&gt;Test Repair_Restart Repair -->
<g id="edge25" class="edge"><title>Repair (Complex)_Test Repair&#45;&gt;Test Repair_Restart Repair</title>
<path fill="none" stroke="black" stroke-width="15" d="M22121.4,-5729.98C22654.9,-5049.82 23695.9,-3722.46 24207.6,-3070.02"/>
<polygon fill="black" stroke="black" stroke-width="15" points="24218.2,-3077.86 24214,-3061.89 24197.5,-3061.66 24218.2,-3077.86"/>
<text text-anchor="middle" x="23148.1" y="-4424.25" font-family="Times,serif" font-size="14.00">53</text>
</g>
<!-- Repair (Complex)_Inform User&#45;&gt;Inform User_Test Repair -->
<g id="edge30" class="edge"><title>Repair (Complex)_Inform User&#45;&gt;Inform User_Test Repair</title>
<path fill="none" stroke="black" stroke-width="15" d="M22163,-3448.35C22412.6,-3686.87 22763,-3967.54 23137.1,-4098.45 23711.4,-4299.43 23897.6,-4112.45 24506.1,-4112.45 24506.1,-4112.45 24506.1,-4112.45 29946.1,-4112.45 30745,-4112.45 31676,-4112.45 32214.4,-4112.45"/>
<polygon fill="black" stroke="black" stroke-width="15" points="32214.6,-4125.57 32224.6,-4112.45 32214.6,-4099.32 32214.6,-4125.57"/>
<text text-anchor="middle" x="27226.1" y="-4116.25" font-family="Times,serif" font-size="14.00">79</text>
</g>
<!-- Analyze Defect_Repair (Simple)&#45;&gt;Repair (Simple)_Test Repair -->
<g id="edge12" class="edge"><title>Analyze Defect_Repair (Simple)&#45;&gt;Repair (Simple)_Test Repair</title>
<path fill="none" stroke="black" stroke-width="15" d="M8766.06,-1603.45C9249.05,-1603.45 9935.92,-1603.45 10401.7,-1603.45"/>
<polygon fill="black" stroke="black" stroke-width="15" points="10402,-1616.57 10412,-1603.45 10402,-1590.32 10402,-1616.57"/>
<text text-anchor="middle" x="9555.11" y="-1607.25" font-family="Times,serif" font-size="14.00">233</text>
</g>
<!-- Analyze Defect_Repair (Simple)&#45;&gt;Repair (Simple)_Inform User -->
<g id="edge11" class="edge"><title>Analyze Defect_Repair (Simple)&#45;&gt;Repair (Simple)_Inform User</title>
<path fill="none" stroke="black" stroke-width="15" d="M8606.09,-1207.31C9106.96,-765.602 10001.7,-112.446 10913.1,-112.446 10913.1,-112.446 10913.1,-112.446 27227.1,-112.446 28344.1,-112.446 29249,-1254.22 29676.7,-1910.34"/>
<polygon fill="black" stroke="black" stroke-width="15" points="29665.9,-1917.77 29682.4,-1919 29687.9,-1903.45 29665.9,-1917.77"/>
<text text-anchor="middle" x="19070.1" y="-116.246" font-family="Times,serif" font-size="14.00">85</text>
</g>
<!-- Test Repair_Inform User&#45;&gt;END -->
<g id="edge36" class="edge"><title>Test Repair_Inform User&#45;&gt;END</title>
<path fill="none" stroke="black" stroke-width="15" d="M13789.4,-5335.48C14124,-6140.37 14994.1,-7849.45 16350.1,-7849.45 16350.1,-7849.45 16350.1,-7849.45 35383.1,-7849.45 36486.1,-7849.45 37825.8,-7602.99 38063.3,-7557.59"/>
<polygon fill="black" stroke="black" stroke-width="15" points="38065.8,-7570.47 38073.1,-7555.7 38060.8,-7544.69 38065.8,-7570.47"/>
<text text-anchor="middle" x="25867.1" y="-7853.25" font-family="Times,serif" font-size="14.00">27</text>
</g>
<!-- Inform User_Restart Repair -->
<g id="node19" class="node"><title>Inform User_Restart Repair</title>
<ellipse fill="lightgrey" stroke="black" stroke-width="10" cx="16351.1" cy="-3046.45" rx="485.151" ry="485.151"/>
<text text-anchor="middle" x="16351.1" y="-3031.45" font-family="Times,serif" font-size="60.00">Inform User_Restart Repair</text>
</g>
<!-- Test Repair_Inform User&#45;&gt;Inform User_Restart Repair -->
<g id="edge34" class="edge"><title>Test Repair_Inform User&#45;&gt;Inform User_Restart Repair</title>
<path fill="none" stroke="black" stroke-width="15" d="M13994.1,-4676.41C14498.9,-4327.18 15414.4,-3693.77 15943.3,-3327.88"/>
<polygon fill="black" stroke="black" stroke-width="15" points="15951.1,-3338.46 15951.8,-3321.98 15936.2,-3316.87 15951.1,-3338.46"/>
<text text-anchor="middle" x="14992.1" y="-3990.25" font-family="Times,serif" font-size="14.00">65</text>
</g>
<!-- Inform User_Archive Repair -->
<g id="node21" class="node"><title>Inform User_Archive Repair</title>
<ellipse fill="lightgrey" stroke="black" stroke-width="10" cx="17711.1" cy="-6394.45" rx="502.092" ry="502.092"/>
<text text-anchor="middle" x="17711.1" y="-6379.45" font-family="Times,serif" font-size="60.00">Inform User_Archive Repair</text>
</g>
<!-- Test Repair_Inform User&#45;&gt;Inform User_Archive Repair -->
<g id="edge35" class="edge"><title>Test Repair_Inform User&#45;&gt;Inform User_Archive Repair</title>
<path fill="none" stroke="black" stroke-width="15" d="M14046,-5073.87C14805,-5347.44 16420.8,-5929.78 17228.9,-6221.03"/>
<polygon fill="black" stroke="black" stroke-width="15" points="17224.6,-6233.4 17238.4,-6224.44 17233.5,-6208.71 17224.6,-6233.4"/>
<text text-anchor="middle" x="14992.1" y="-5416.25" font-family="Times,serif" font-size="14.00">215</text>
</g>
<!-- Test Repair_Restart Repair&#45;&gt;Restart Repair_Inform User -->
<g id="edge38" class="edge"><title>Test Repair_Restart Repair&#45;&gt;Restart Repair_Inform User</title>
<path fill="none" stroke="black" stroke-width="15" d="M24812.9,-3051.4C25331,-3666.82 26378.7,-4911.2 26906.3,-5537.8"/>
<polygon fill="black" stroke="black" stroke-width="15" points="26896.4,-5546.4 26912.9,-5545.6 26916.5,-5529.49 26896.4,-5546.4"/>
<text text-anchor="middle" x="25867.1" y="-4307.25" font-family="Times,serif" font-size="14.00">74</text>
</g>
<!-- Test Repair_Restart Repair&#45;&gt;Restart Repair_Repair (Complex) -->
<g id="edge39" class="edge"><title>Test Repair_Restart Repair&#45;&gt;Restart Repair_Repair (Complex)</title>
<path fill="none" stroke="black" stroke-width="15" d="M24041.3,-2601.96C23406.3,-2495.38 22233.2,-2344.54 21240.4,-2473.45 20683.5,-2545.75 20066,-2718.32 19632.6,-2855.3"/>
<polygon fill="black" stroke="black" stroke-width="15" points="19628.6,-2842.8 19623.1,-2858.33 19636.6,-2867.82 19628.6,-2842.8"/>
<text text-anchor="middle" x="21789.1" y="-2477.25" font-family="Times,serif" font-size="14.00">64</text>
</g>
<!-- Restart Repair_Repair (Simple) -->
<g id="node20" class="node"><title>Restart Repair_Repair (Simple)</title>
<ellipse fill="lightgrey" stroke="black" stroke-width="10" cx="27226.1" cy="-2360.45" rx="548.93" ry="548.93"/>
<text text-anchor="middle" x="27226.1" y="-2345.45" font-family="Times,serif" font-size="60.00">Restart Repair_Repair (Simple)</text>
</g>
<!-- Test Repair_Restart Repair&#45;&gt;Restart Repair_Repair (Simple) -->
<g id="edge40" class="edge"><title>Test Repair_Restart Repair&#45;&gt;Restart Repair_Repair (Simple)</title>
<path fill="none" stroke="black" stroke-width="15" d="M24977.5,-2632.61C25448.1,-2575.62 26172.6,-2487.9 26671.1,-2427.53"/>
<polygon fill="black" stroke="black" stroke-width="15" points="26673,-2440.52 26681.3,-2426.29 26669.8,-2414.46 26673,-2440.52"/>
<text text-anchor="middle" x="25867.1" y="-2529.25" font-family="Times,serif" font-size="14.00">203</text>
</g>
<!-- Analyze Defect_Repair (Complex)&#45;&gt;END -->
<g id="edge20" class="edge"><title>Analyze Defect_Repair (Complex)&#45;&gt;END</title>
<path fill="none" stroke="black" stroke-width="15" d="M19475.6,-10185.9C19968.6,-10681.7 20852.3,-11410.4 21788.1,-11410.4 21788.1,-11410.4 21788.1,-11410.4 35383.1,-11410.4 37375.9,-11410.4 38034.3,-7927.65 38095.3,-7578.56"/>
<polygon fill="black" stroke="black" stroke-width="15" points="38108.3,-7580.61 38097.1,-7568.51 38082.4,-7576.13 38108.3,-7580.61"/>
<text text-anchor="middle" x="28585.1" y="-11414.2" font-family="Times,serif" font-size="14.00">2</text>
</g>
<!-- Analyze Defect_Repair (Complex)&#45;&gt;Repair (Complex)_Test Repair -->
<g id="edge18" class="edge"><title>Analyze Defect_Repair (Complex)&#45;&gt;Repair (Complex)_Test Repair</title>
<path fill="none" stroke="black" stroke-width="15" d="M19428.4,-9248.14C19698.2,-8880.87 20078.7,-8366.06 20418.1,-7918.45 20766.1,-7459.49 21171.1,-6939.05 21450,-6582.73"/>
<polygon fill="black" stroke="black" stroke-width="15" points="21460.6,-6590.57 21456.4,-6574.6 21439.9,-6574.39 21460.6,-6590.57"/>
<text text-anchor="middle" x="20429.1" y="-7922.25" font-family="Times,serif" font-size="14.00">174</text>
</g>
<!-- Analyze Defect_Repair (Complex)&#45;&gt;Repair (Complex)_Inform User -->
<g id="edge19" class="edge"><title>Analyze Defect_Repair (Complex)&#45;&gt;Repair (Complex)_Inform User</title>
<path fill="none" stroke="black" stroke-width="15" d="M19298.8,-9175.78C19816.8,-7900.36 21077.1,-4797.22 21577.9,-3564.09"/>
<polygon fill="black" stroke="black" stroke-width="15" points="21590.1,-3568.82 21581.7,-3554.62 21565.8,-3558.94 21590.1,-3568.82"/>
<text text-anchor="middle" x="20429.1" y="-6395.25" font-family="Times,serif" font-size="14.00">73</text>
</g>
<!-- Inform User_Restart Repair&#45;&gt;Restart Repair_Repair (Complex) -->
<g id="edge21" class="edge"><title>Inform User_Restart Repair&#45;&gt;Restart Repair_Repair (Complex)</title>
<path fill="none" stroke="black" stroke-width="15" d="M16836.3,-3046.45C17294.8,-3046.45 17984.4,-3046.45 18475.8,-3046.45"/>
<polygon fill="black" stroke="black" stroke-width="15" points="18476,-3059.57 18486,-3046.45 18476,-3033.32 18476,-3059.57"/>
<text text-anchor="middle" x="17711.1" y="-3050.25" font-family="Times,serif" font-size="14.00">17</text>
</g>
<!-- Inform User_Restart Repair&#45;&gt;Restart Repair_Repair (Simple) -->
<g id="edge22" class="edge"><title>Inform User_Restart Repair&#45;&gt;Restart Repair_Repair (Simple)</title>
<path fill="none" stroke="black" stroke-width="15" d="M16658.2,-2670.65C17120.8,-2148.09 18052.7,-1265.45 19069.1,-1265.45 19069.1,-1265.45 19069.1,-1265.45 24508.1,-1265.45 25350.1,-1265.45 26239.5,-1723.45 26762.7,-2047.04"/>
<polygon fill="black" stroke="black" stroke-width="15" points="26756.1,-2058.41 26771.5,-2052.51 26769.9,-2036.09 26756.1,-2058.41"/>
<text text-anchor="middle" x="21789.1" y="-1269.25" font-family="Times,serif" font-size="14.00">48</text>
</g>
<!-- Restart Repair_Repair (Simple)&#45;&gt;Repair (Simple)_Test Repair -->
<g id="edge42" class="edge"><title>Restart Repair_Repair (Simple)&#45;&gt;Repair (Simple)_Test Repair</title>
<path fill="none" stroke="black" stroke-width="15" d="M26809.4,-2003.32C26301.8,-1604.86 25400.1,-1015.45 24508.1,-1015.45 13632.1,-1015.45 13632.1,-1015.45 13632.1,-1015.45 12835.1,-1015.45 11935.7,-1260.13 11397.7,-1433.82"/>
<polygon fill="black" stroke="black" stroke-width="15" points="11393.3,-1421.45 11387.9,-1437.01 11401.4,-1446.42 11393.3,-1421.45"/>
<text text-anchor="middle" x="19070.1" y="-1019.25" font-family="Times,serif" font-size="14.00">231</text>
</g>
<!-- Restart Repair_Repair (Simple)&#45;&gt;Repair (Simple)_Inform User -->
<g id="edge41" class="edge"><title>Restart Repair_Repair (Simple)&#45;&gt;Repair (Simple)_Inform User</title>
<path fill="none" stroke="black" stroke-width="15" d="M27774.9,-2360.45C28255.3,-2360.45 28948.9,-2360.45 29421.6,-2360.45"/>
<polygon fill="black" stroke="black" stroke-width="15" points="29421.7,-2373.57 29431.7,-2360.45 29421.7,-2347.32 29421.7,-2373.57"/>
<text text-anchor="middle" x="28585.1" y="-2364.25" font-family="Times,serif" font-size="14.00">20</text>
</g>
<!-- Inform User_Archive Repair&#45;&gt;END -->
<g id="edge37" class="edge"><title>Inform User_Archive Repair&#45;&gt;END</title>
<path fill="none" stroke="black" stroke-width="15" d="M18127.5,-6675.24C18639.9,-7003.03 19549.8,-7526.05 20418.1,-7728.45 20547,-7758.48 29811.8,-7671.45 29944.1,-7671.45 29944.1,-7671.45 29944.1,-7671.45 35383.1,-7671.45 36478.8,-7671.45 37820.5,-7572.03 38062,-7553.42"/>
<polygon fill="black" stroke="black" stroke-width="15" points="38063.1,-7566.51 38072,-7552.65 38061,-7540.33 38063.1,-7566.51"/>
<text text-anchor="middle" x="27226.1" y="-7702.25" font-family="Times,serif" font-size="14.00">215</text>
</g>
<!-- START -->
<g id="node22" class="node"><title>START</title>
<ellipse fill="none" stroke="black" cx="40.112" cy="-9736.45" rx="39.7935" ry="18"/>
<text text-anchor="middle" x="40.112" y="-9732.75" font-family="Times,serif" font-size="14.00">START</text>
</g>
<!-- START&#45;&gt;START_Register -->
<g id="edge43" class="edge"><title>START&#45;&gt;START_Register</title>
<path fill="none" stroke="black" stroke-width="15" d="M79.7667,-9736.45C334.932,-9736.45 1787.02,-9736.45 2439.57,-9736.45"/>
<polygon fill="black" stroke="black" stroke-width="15" points="2439.6,-9749.57 2449.6,-9736.45 2439.6,-9723.32 2439.6,-9749.57"/>
<text text-anchor="middle" x="1399.11" y="-9740.25" font-family="Times,serif" font-size="14.00">1104</text>
</g>
</g>
</svg>
