<?xml version="1.0" encoding="UTF-8" standalone="no"?>
<!DOCTYPE svg PUBLIC "-//W3C//DTD SVG 1.1//EN"
 "http://www.w3.org/Graphics/SVG/1.1/DTD/svg11.dtd">
<!-- Generated by graphviz version 2.38.0 (20140413.2041)
 -->
<!-- Title: %3 Pages: 1 -->
<svg width="7391pt" height="2224pt"
 viewBox="0.00 0.00 7391.41 2224.34" xmlns="http://www.w3.org/2000/svg" xmlns:xlink="http://www.w3.org/1999/xlink">
<g id="graph0" class="graph" transform="scale(1 1) rotate(0) translate(4 2220.34)">
<title>%3</title>
<polygon fill="white" stroke="none" points="-4,4 -4,-2220.34 7387.41,-2220.34 7387.41,4 -4,4"/>
<!-- Repair (Simple) -->
<g id="node1" class="node"><title>Repair (Simple)</title>
<ellipse fill="lightgrey" stroke="black" stroke-width="10" cx="3552.41" cy="-847.042" rx="283.6" ry="283.6"/>
<text text-anchor="middle" x="3552.41" y="-832.042" font-family="Times,serif" font-size="60.00">Repair (Simple)</text>
</g>
<!-- Test Repair -->
<g id="node2" class="node"><title>Test Repair</title>
<ellipse fill="lightgrey" stroke="black" stroke-width="10" cx="4722.41" cy="-1036.04" rx="208.693" ry="208.693"/>
<text text-anchor="middle" x="4722.41" y="-1021.04" font-family="Times,serif" font-size="60.00">Test Repair</text>
</g>
<!-- Repair (Simple)&#45;&gt;Test Repair -->
<g id="edge1" class="edge"><title>Repair (Simple)&#45;&gt;Test Repair</title>
<path fill="none" stroke="black" stroke-width="15" d="M3832.44,-892.192C4039.11,-925.636 4316.63,-970.541 4506.27,-1001.23"/>
<polygon fill="black" stroke="black" stroke-width="15" points="4504.4,-1014.22 4516.37,-1002.86 4508.59,-988.309 4504.4,-1014.22"/>
<text text-anchor="middle" x="4137.41" y="-945.842" font-family="Times,serif" font-size="14.00">680</text>
</g>
<!-- Archive Repair -->
<g id="node4" class="node"><title>Archive Repair</title>
<ellipse fill="lightgrey" stroke="black" stroke-width="10" cx="5893.41" cy="-1709.04" rx="272.472" ry="272.472"/>
<text text-anchor="middle" x="5893.41" y="-1694.04" font-family="Times,serif" font-size="60.00">Archive Repair</text>
</g>
<!-- Test Repair&#45;&gt;Archive Repair -->
<g id="edge4" class="edge"><title>Test Repair&#45;&gt;Archive Repair</title>
<path fill="none" stroke="black" stroke-width="15" d="M4903.51,-1139.72C5103.07,-1254.61 5425.98,-1440.51 5648.2,-1568.45"/>
<polygon fill="black" stroke="black" stroke-width="15" points="5641.84,-1579.93 5657.06,-1573.55 5654.94,-1557.18 5641.84,-1579.93"/>
<text text-anchor="middle" x="5308.41" y="-1375.84" font-family="Times,serif" font-size="14.00">785</text>
</g>
<!-- END -->
<g id="node5" class="node"><title>END</title>
<ellipse fill="none" stroke="black" cx="7064.41" cy="-1709.04" rx="29.4969" ry="18"/>
<text text-anchor="middle" x="7064.41" y="-1705.34" font-family="Times,serif" font-size="14.00">END</text>
</g>
<!-- Test Repair&#45;&gt;END -->
<g id="edge6" class="edge"><title>Test Repair&#45;&gt;END</title>
<path fill="none" stroke="black" stroke-width="15" d="M4925.46,-1084.61C5205.42,-1152.86 5726.47,-1283.38 6165.65,-1413.04 6505.18,-1513.28 6909.95,-1654.76 7028.94,-1696.81"/>
<polygon fill="black" stroke="black" stroke-width="15" points="7024.8,-1709.26 7038.6,-1700.22 7033.55,-1684.52 7024.8,-1709.26"/>
<text text-anchor="middle" x="5893.41" y="-1416.84" font-family="Times,serif" font-size="14.00">75</text>
</g>
<!-- Restart Repair -->
<g id="node6" class="node"><title>Restart Repair</title>
<ellipse fill="lightgrey" stroke="black" stroke-width="10" cx="5893.41" cy="-564.042" rx="255.031" ry="255.031"/>
<text text-anchor="middle" x="5893.41" y="-549.042" font-family="Times,serif" font-size="60.00">Restart Repair</text>
</g>
<!-- Test Repair&#45;&gt;Restart Repair -->
<g id="edge5" class="edge"><title>Test Repair&#45;&gt;Restart Repair</title>
<path fill="none" stroke="black" stroke-width="15" d="M4916.12,-958.233C5116.17,-877.462 5429.69,-750.872 5647.25,-663.028"/>
<polygon fill="black" stroke="black" stroke-width="15" points="5652.21,-675.182 5656.57,-659.267 5642.38,-650.841 5652.21,-675.182"/>
<text text-anchor="middle" x="5308.41" y="-803.842" font-family="Times,serif" font-size="14.00">341</text>
</g>
<!-- Inform User -->
<g id="node3" class="node"><title>Inform User</title>
<ellipse fill="lightgrey" stroke="black" stroke-width="10" cx="4722.41" cy="-1827.04" rx="219.82" ry="219.82"/>
<text text-anchor="middle" x="4722.41" y="-1812.04" font-family="Times,serif" font-size="60.00">Inform User</text>
</g>
<!-- Inform User&#45;&gt;Archive Repair -->
<g id="edge2" class="edge"><title>Inform User&#45;&gt;Archive Repair</title>
<path fill="none" stroke="black" stroke-width="15" d="M4941.24,-1805.05C5130.77,-1785.92 5406.59,-1758.08 5612.47,-1737.3"/>
<polygon fill="black" stroke="black" stroke-width="15" points="5613.89,-1750.35 5622.52,-1736.29 5611.26,-1724.23 5613.89,-1750.35"/>
<text text-anchor="middle" x="5308.41" y="-1771.84" font-family="Times,serif" font-size="14.00">215</text>
</g>
<!-- Inform User&#45;&gt;END -->
<g id="edge3" class="edge"><title>Inform User&#45;&gt;END</title>
<path fill="none" stroke="black" stroke-width="15" d="M4934.59,-1885.76C5216.21,-1956.11 5729.9,-2056.64 6165.65,-1990.04 6515.08,-1936.63 6915.39,-1772.67 7030.76,-1723.27"/>
<polygon fill="black" stroke="black" stroke-width="15" points="7036.11,-1735.26 7040.11,-1719.25 7025.74,-1711.14 7036.11,-1735.26"/>
<text text-anchor="middle" x="5893.41" y="-2014.84" font-family="Times,serif" font-size="14.00">27</text>
</g>
<!-- Archive Repair&#45;&gt;END -->
<g id="edge11" class="edge"><title>Archive Repair&#45;&gt;END</title>
<path fill="none" stroke="black" stroke-width="15" d="M6165.91,-1709.04C6456.23,-1709.04 6892.67,-1709.04 7024.41,-1709.04"/>
<polygon fill="black" stroke="black" stroke-width="15" points="7024.79,-1722.17 7034.79,-1709.04 7024.79,-1695.92 7024.79,-1722.17"/>
<text text-anchor="middle" x="6479.41" y="-1712.84" font-family="Times,serif" font-size="14.00">1000</text>
</g>
<!-- Restart Repair&#45;&gt;Repair (Simple) -->
<g id="edge12" class="edge"><title>Restart Repair&#45;&gt;Repair (Simple)</title>
<path fill="none" stroke="black" stroke-width="15" d="M5639.69,-594.619C5202.32,-647.538 4306.8,-755.888 3844.27,-811.851"/>
<polygon fill="black" stroke="black" stroke-width="15" points="3842.45,-798.85 3834.1,-813.082 3845.6,-824.91 3842.45,-798.85"/>
<text text-anchor="middle" x="4722.41" y="-735.842" font-family="Times,serif" font-size="14.00">251</text>
</g>
<!-- Repair (Complex) -->
<g id="node9" class="node"><title>Repair (Complex)</title>
<ellipse fill="lightgrey" stroke="black" stroke-width="10" cx="7064.41" cy="-564.042" rx="318.81" ry="318.81"/>
<text text-anchor="middle" x="7064.41" y="-549.042" font-family="Times,serif" font-size="60.00">Repair (Complex)</text>
</g>
<!-- Restart Repair&#45;&gt;Repair (Complex) -->
<g id="edge13" class="edge"><title>Restart Repair&#45;&gt;Repair (Complex)</title>
<path fill="none" stroke="black" stroke-width="15" d="M6148.79,-564.042C6320.76,-564.042 6549.46,-564.042 6735.15,-564.042"/>
<polygon fill="black" stroke="black" stroke-width="15" points="6735.35,-577.167 6745.35,-564.042 6735.35,-550.917 6735.35,-577.167"/>
<text text-anchor="middle" x="6479.41" y="-567.842" font-family="Times,serif" font-size="14.00">81</text>
</g>
<!-- Register -->
<g id="node7" class="node"><title>Register</title>
<ellipse fill="lightgrey" stroke="black" stroke-width="10" cx="1210.41" cy="-847.042" rx="152.97" ry="152.97"/>
<text text-anchor="middle" x="1210.41" y="-832.042" font-family="Times,serif" font-size="60.00">Register</text>
</g>
<!-- Analyze Defect -->
<g id="node8" class="node"><title>Analyze Defect</title>
<ellipse fill="lightgrey" stroke="black" stroke-width="10" cx="2381.41" cy="-847.042" rx="276.458" ry="276.458"/>
<text text-anchor="middle" x="2381.41" y="-832.042" font-family="Times,serif" font-size="60.00">Analyze Defect</text>
</g>
<!-- Register&#45;&gt;Analyze Defect -->
<g id="edge7" class="edge"><title>Register&#45;&gt;Analyze Defect</title>
<path fill="none" stroke="black" stroke-width="15" d="M1363.34,-847.042C1548.1,-847.042 1863.81,-847.042 2094.59,-847.042"/>
<polygon fill="black" stroke="black" stroke-width="15" points="2094.82,-860.167 2104.82,-847.042 2094.82,-833.917 2094.82,-860.167"/>
<text text-anchor="middle" x="1795.41" y="-850.842" font-family="Times,serif" font-size="14.00">1104</text>
</g>
<!-- Analyze Defect&#45;&gt;Repair (Simple) -->
<g id="edge8" class="edge"><title>Analyze Defect&#45;&gt;Repair (Simple)</title>
<path fill="none" stroke="black" stroke-width="15" d="M2657.97,-847.042C2838.67,-847.042 3074.66,-847.042 3258.72,-847.042"/>
<polygon fill="black" stroke="black" stroke-width="15" points="3258.82,-860.167 3268.82,-847.042 3258.82,-833.917 3258.82,-860.167"/>
<text text-anchor="middle" x="2966.41" y="-850.842" font-family="Times,serif" font-size="14.00">318</text>
</g>
<!-- Analyze Defect&#45;&gt;Inform User -->
<g id="edge9" class="edge"><title>Analyze Defect&#45;&gt;Inform User</title>
<path fill="none" stroke="black" stroke-width="15" d="M2636.62,-953.551C3101.2,-1148.2 4079.13,-1557.94 4509.97,-1738.45"/>
<polygon fill="black" stroke="black" stroke-width="15" points="4505.12,-1750.65 4519.41,-1742.41 4515.26,-1726.44 4505.12,-1750.65"/>
<text text-anchor="middle" x="3552.41" y="-1453.84" font-family="Times,serif" font-size="14.00">537</text>
</g>
<!-- Analyze Defect&#45;&gt;Repair (Complex) -->
<g id="edge10" class="edge"><title>Analyze Defect&#45;&gt;Repair (Complex)</title>
<path fill="none" stroke="black" stroke-width="15" d="M2556.32,-632.811C2765.72,-400.683 3140.88,-63.0421 3551.41,-63.0421 3551.41,-63.0421 3551.41,-63.0421 5894.41,-63.0421 6223.73,-63.0421 6566.11,-233.091 6794.56,-375.049"/>
<polygon fill="black" stroke="black" stroke-width="15" points="6787.88,-386.354 6803.31,-380.511 6801.77,-364.082 6787.88,-386.354"/>
<text text-anchor="middle" x="4722.41" y="-66.8421" font-family="Times,serif" font-size="14.00">249</text>
</g>
<!-- Repair (Complex)&#45;&gt;Test Repair -->
<g id="edge14" class="edge"><title>Repair (Complex)&#45;&gt;Test Repair</title>
<path fill="none" stroke="black" stroke-width="15" d="M6761.56,-664.519C6588.67,-719.105 6366.75,-784.208 6165.65,-828.042 5735.57,-921.789 5223.85,-984.189 4940.16,-1014.55"/>
<polygon fill="black" stroke="black" stroke-width="15" points="4938.72,-1001.5 4930.17,-1015.61 4941.5,-1027.6 4938.72,-1001.5"/>
<text text-anchor="middle" x="5893.41" y="-927.842" font-family="Times,serif" font-size="14.00">644</text>
</g>
<!-- START -->
<g id="node10" class="node"><title>START</title>
<ellipse fill="none" stroke="black" cx="39.4135" cy="-847.042" rx="39.7935" ry="18"/>
<text text-anchor="middle" x="39.4135" y="-843.342" font-family="Times,serif" font-size="14.00">START</text>
</g>
<!-- START&#45;&gt;Register -->
<g id="edge15" class="edge"><title>START&#45;&gt;Register</title>
<path fill="none" stroke="black" stroke-width="15" d="M79.3083,-847.042C228.896,-847.042 772.47,-847.042 1047.57,-847.042"/>
<polygon fill="black" stroke="black" stroke-width="15" points="1047.65,-860.167 1057.65,-847.042 1047.65,-833.917 1047.65,-860.167"/>
<text text-anchor="middle" x="625.414" y="-850.842" font-family="Times,serif" font-size="14.00">1104</text>
</g>
</g>
</svg>
